<svg id="visual" viewBox="0 0 900 600" preserveAspectRatio="none" width="100%" height="100%" xmlns="http://www.w3.org/2000/svg" xmlns:xlink="http://www.w3.org/1999/xlink" version="1.1">
<rect x="0" y="0" width="900" height="600" fill="#001220"></rect>
<path d="M0 357L21.5 367C43 377 86 397 128.8 407.2C171.7 417.3 214.3 417.7 257.2 412.7C300 407.7 343 397.3 385.8 389.3C428.7 381.3 471.3 375.7 514.2 382.5C557 389.3 600 408.7 642.8 419.8C685.7 431 728.3 434 771.2 430.5C814 427 857 417 878.5 412L900 407L900 601L878.5 601C857 601 814 601 771.2 601C728.3 601 685.7 601 642.8 601C600 601 557 601 514.2 601C471.3 601 428.7 601 385.8 601C343 601 300 601 257.2 601C214.3 601 171.7 601 128.8 601C86 601 43 601 21.5 601L0 601Z" fill="#c62368"></path>
<path d="M0 445L21.5 445.3C43 445.7 86 446.3 128.8 446.5C171.7 446.7 214.3 446.3 257.2 445C300 443.7 343 441.3 385.8 442.5C428.7 443.7 471.3 448.3 514.2 449.2C557 450 600 447 642.8 451.2C685.7 455.3 728.3 466.7 771.2 461.8C814 457 857 436 878.5 425.5L900 415L900 601L878.5 601C857 601 814 601 771.2 601C728.3 601 685.7 601 642.8 601C600 601 557 601 514.2 601C471.3 601 428.7 601 385.8 601C343 601 300 601 257.2 601C214.3 601 171.7 601 128.8 601C86 601 43 601 21.5 601L0 601Z" fill="#d53867"></path>
<path d="M0 467L21.5 467.7C43 468.3 86 469.7 128.8 476.7C171.7 483.7 214.3 496.3 257.2 493C300 489.7 343 470.3 385.8 465.7C428.7 461 471.3 471 514.2 469.3C557 467.7 600 454.3 642.8 457.5C685.7 460.7 728.3 480.3 771.2 484.2C814 488 857 476 878.5 470L900 464L900 601L878.5 601C857 601 814 601 771.2 601C728.3 601 685.7 601 642.8 601C600 601 557 601 514.2 601C471.3 601 428.7 601 385.8 601C343 601 300 601 257.2 601C214.3 601 171.7 601 128.8 601C86 601 43 601 21.5 601L0 601Z" fill="#e34c67"></path>
<path d="M0 511L21.5 515.8C43 520.7 86 530.3 128.8 531.3C171.7 532.3 214.3 524.7 257.2 519.8C300 515 343 513 385.8 510.7C428.7 508.3 471.3 505.7 514.2 507.7C557 509.7 600 516.3 642.8 519.8C685.7 523.3 728.3 523.7 771.2 516.5C814 509.3 857 494.7 878.5 487.3L900 480L900 601L878.5 601C857 601 814 601 771.2 601C728.3 601 685.7 601 642.8 601C600 601 557 601 514.2 601C471.3 601 428.7 601 385.8 601C343 601 300 601 257.2 601C214.3 601 171.7 601 128.8 601C86 601 43 601 21.5 601L0 601Z" fill="#ef5f67"></path>
<path d="M0 568L21.5 566.7C43 565.3 86 562.7 128.8 561.5C171.7 560.3 214.3 560.7 257.2 560.3C300 560 343 559 385.8 554C428.7 549 471.3 540 514.2 542.5C557 545 600 559 642.8 558C685.7 557 728.3 541 771.2 540.5C814 540 857 555 878.5 562.5L900 570L900 601L878.5 601C857 601 814 601 771.2 601C728.3 601 685.7 601 642.8 601C600 601 557 601 514.2 601C471.3 601 428.7 601 385.8 601C343 601 300 601 257.2 601C214.3 601 171.7 601 128.8 601C86 601 43 601 21.5 601L0 601Z" fill="#fa7268"></path>
</svg>